<svg width="193" height="23" viewBox="0 0 193 23" fill="none" xmlns="http://www.w3.org/2000/svg">
<mask id="path-1-outside-1_1_2687" maskUnits="userSpaceOnUse" x="0.618208" y="-0.536011" width="193" height="23" fill="black">
<rect fill="white" x="0.618208" y="-0.536011" width="193" height="23"/>
<path d="M6.8666 20.392L2.61827 2.63199H6.29027L9.1465 15.16L12.4823 2.63199H15.7463L19.0585 15.16L21.9143 2.63199H25.5863L21.3386 20.392H17.7146L14.1144 7.86399L10.4906 20.392H6.8666Z"/>
<path d="M31.2463 20.512C30.8623 20.512 30.4223 20.472 29.9263 20.392C29.4303 20.328 28.9503 20.168 28.4863 19.912C28.0383 19.656 27.6623 19.272 27.3583 18.76C27.0702 18.232 26.9262 17.512 26.9262 16.6L26.926 6.68799C26.926 5.90399 27.046 5.24799 27.286 4.71999C27.526 4.19199 27.846 3.77599 28.246 3.47199C28.646 3.16799 29.086 2.95199 29.566 2.82399C30.046 2.69599 30.518 2.63199 30.982 2.63199C32.182 2.63199 33.238 2.64799 34.15 2.67999C35.078 2.71199 35.91 2.75199 36.646 2.79999C37.382 2.83199 38.054 2.87999 38.662 2.94399L38.662 5.91999H32.038C31.542 5.91999 31.158 6.03999 30.886 6.27999C30.614 6.51999 30.478 6.88799 30.478 7.38399L30.4781 9.95199L37.5101 10.144L37.5101 12.952L30.4781 13.144L30.4782 15.592C30.4782 16.008 30.5422 16.336 30.6702 16.576C30.8142 16.8 30.9982 16.96 31.2222 17.056C31.4622 17.136 31.7102 17.176 31.9662 17.176H38.6622L38.6623 20.152C37.9583 20.232 37.1743 20.296 36.3103 20.344C35.4623 20.392 34.5983 20.432 33.7183 20.464C32.8543 20.496 32.0303 20.512 31.2463 20.512Z"/>
<path d="M47.4341 20.392L47.4338 2.63199H54.4178C56.1778 2.63199 57.4578 3.03999 58.2578 3.85599C59.0738 4.65599 59.4818 5.79999 59.4819 7.28799C59.4819 7.99199 59.3779 8.61599 59.1699 9.15999C58.9779 9.68799 58.6979 10.128 58.3299 10.48C57.9619 10.816 57.5219 11.048 57.0099 11.176C57.3939 11.272 57.7619 11.424 58.1139 11.632C58.4819 11.84 58.8099 12.12 59.0979 12.472C59.402 12.824 59.634 13.256 59.794 13.768C59.97 14.264 60.058 14.84 60.058 15.496C60.058 16.696 59.85 17.656 59.4341 18.376C59.0341 19.096 58.4341 19.616 57.6341 19.936C56.8501 20.24 55.8821 20.392 54.7301 20.392H47.4341ZM50.986 17.2H54.634C55.05 17.2 55.41 17.12 55.714 16.96C56.018 16.8 56.25 16.552 56.41 16.216C56.586 15.88 56.674 15.432 56.674 14.872C56.674 14.408 56.586 14.016 56.41 13.696C56.234 13.376 55.994 13.128 55.69 12.952C55.386 12.776 55.034 12.688 54.634 12.688H50.986L50.986 17.2ZM50.9859 9.95199H54.4419C54.9539 9.95199 55.3539 9.76799 55.6419 9.39999C55.9459 9.01599 56.0979 8.51999 56.0979 7.91199C56.1138 7.12799 55.9538 6.58399 55.6178 6.27999C55.2818 5.97599 54.8738 5.82399 54.3938 5.82399H50.9858L50.9859 9.95199Z"/>
<path d="M69.177 20.512C68.201 20.512 67.289 20.432 66.441 20.272C65.593 20.096 64.849 19.8 64.209 19.384C63.5849 18.952 63.0969 18.36 62.7449 17.608C62.4089 16.84 62.2409 15.864 62.2409 14.68L62.2406 2.63199H65.7926L65.7929 14.656C65.7929 15.312 65.9209 15.832 66.1769 16.216C66.4489 16.6 66.8329 16.88 67.3289 17.056C67.8409 17.232 68.4569 17.32 69.1769 17.32C69.8809 17.32 70.4809 17.232 70.9769 17.056C71.4889 16.88 71.8729 16.6 72.1289 16.216C72.4009 15.832 72.5369 15.312 72.5369 14.656L72.5366 2.63199L76.1126 2.63199L76.1129 14.68C76.1129 15.864 75.9369 16.84 75.5849 17.608C75.2329 18.36 74.7449 18.952 74.121 19.384C73.497 19.8 72.761 20.096 71.913 20.272C71.081 20.432 70.169 20.512 69.177 20.512Z"/>
<path d="M83.1581 20.392L83.158 15.016L77.8058 2.63199H81.5018L85.0059 11.392L88.4858 2.63199L92.0378 2.63199L86.71 15.016L86.7101 20.392H83.1581Z"/>
<path d="M103.912 20.392L103.912 5.82399H99.0396L99.0396 2.63199L112.36 2.63199L112.36 5.82399H107.464L107.464 20.392H103.912Z"/>
<path d="M114.278 20.392L114.278 2.63199H121.622C122.326 2.63199 122.982 2.71999 123.59 2.89599C124.198 3.05599 124.734 3.34399 125.198 3.75999C125.662 4.17599 126.022 4.75199 126.278 5.48799C126.55 6.22399 126.686 7.16799 126.686 8.31999C126.686 9.13599 126.606 9.83199 126.446 10.408C126.286 10.984 126.07 11.456 125.798 11.824C125.542 12.192 125.246 12.488 124.91 12.712C124.574 12.936 124.23 13.12 123.878 13.264L127.19 20.392H123.566L120.71 13.816C120.518 13.816 120.294 13.816 120.038 13.816C119.798 13.8 119.55 13.792 119.294 13.792C119.038 13.792 118.782 13.792 118.526 13.792C118.27 13.792 118.038 13.784 117.83 13.768L117.83 20.392H114.278ZM117.83 10.96H120.998C121.318 10.96 121.606 10.92 121.862 10.84C122.118 10.76 122.342 10.624 122.534 10.432C122.726 10.224 122.87 9.95199 122.966 9.61599C123.078 9.27999 123.134 8.84799 123.134 8.31999C123.134 7.82399 123.078 7.41599 122.966 7.09599C122.87 6.75999 122.726 6.50399 122.534 6.32799C122.342 6.13599 122.118 6.00799 121.862 5.94399C121.606 5.86399 121.318 5.82399 120.998 5.82399H117.83L117.83 10.96Z"/>
<path d="M128.197 20.392L133.764 2.63199H138.252L143.821 20.392H140.125L138.997 16.672H132.949L131.845 20.392H128.197ZM133.789 13.48H138.157L135.972 5.67999L133.789 13.48Z"/>
<path d="M145.286 20.392L145.285 6.68799C145.285 5.90399 145.405 5.24799 145.645 4.71999C145.885 4.19199 146.205 3.77599 146.605 3.47199C147.005 3.16799 147.445 2.95199 147.925 2.82399C148.405 2.69599 148.877 2.63199 149.341 2.63199C149.917 2.63199 150.629 2.63999 151.477 2.65599C152.341 2.65599 153.253 2.67999 154.213 2.72799C155.189 2.77599 156.125 2.84799 157.021 2.94399L157.021 5.91999L150.325 5.91999C149.829 5.91999 149.453 6.05599 149.197 6.32799C148.957 6.58399 148.837 6.92799 148.837 7.35999L148.837 10.384L155.869 10.576L155.87 13.384L148.838 13.576L148.838 20.392H145.286Z"/>
<path d="M159.043 20.392L159.043 6.68799C159.043 5.90399 159.163 5.24799 159.403 4.71999C159.643 4.19199 159.963 3.77599 160.363 3.47199C160.763 3.16799 161.203 2.95199 161.683 2.82399C162.163 2.69599 162.635 2.63199 163.099 2.63199C163.675 2.63199 164.387 2.63999 165.235 2.65599C166.099 2.65599 167.011 2.67999 167.971 2.72799C168.947 2.77599 169.883 2.84799 170.779 2.94399L170.779 5.91999L164.083 5.91999C163.587 5.91999 163.211 6.05599 162.955 6.32799C162.715 6.58399 162.595 6.92799 162.595 7.35999L162.595 10.384L169.627 10.576L169.627 13.384L162.595 13.576L162.595 20.392H159.043Z"/>
<path d="M173.036 20.392L173.035 2.63199H176.587L176.588 20.392H173.036Z"/>
<path d="M185.644 20.536C184.604 20.536 183.684 20.416 182.884 20.176C182.1 19.936 181.428 19.496 180.868 18.856C180.324 18.216 179.908 17.304 179.62 16.12C179.348 14.92 179.212 13.368 179.212 11.464C179.212 9.62399 179.356 8.11999 179.644 6.95199C179.948 5.76799 180.38 4.85599 180.94 4.21599C181.5 3.55999 182.18 3.10399 182.98 2.84799C183.78 2.59199 184.684 2.46399 185.692 2.46399C186.492 2.46399 187.236 2.51199 187.924 2.60799C188.628 2.68799 189.26 2.79199 189.82 2.91999C190.38 3.03199 190.852 3.15999 191.236 3.30399L191.236 6.06399C190.948 5.99999 190.556 5.93599 190.06 5.87199C189.58 5.80799 189.028 5.75999 188.404 5.72799C187.78 5.67999 187.124 5.65599 186.436 5.65599C185.764 5.65599 185.188 5.73599 184.708 5.89599C184.244 6.03999 183.868 6.31999 183.58 6.73599C183.308 7.13599 183.1 7.71999 182.956 8.48799C182.828 9.25599 182.764 10.256 182.764 11.488C182.764 12.672 182.82 13.648 182.932 14.416C183.06 15.184 183.26 15.784 183.532 16.216C183.804 16.632 184.172 16.928 184.636 17.104C185.116 17.264 185.716 17.344 186.436 17.344C187.652 17.344 188.636 17.32 189.388 17.272C190.156 17.224 190.772 17.168 191.236 17.104L191.236 19.84C190.804 19.984 190.308 20.112 189.748 20.224C189.188 20.32 188.572 20.392 187.9 20.44C187.228 20.504 186.476 20.536 185.644 20.536Z"/>
</mask>
<path d="M6.8666 20.392L2.61827 2.63199H6.29027L9.1465 15.16L12.4823 2.63199H15.7463L19.0585 15.16L21.9143 2.63199H25.5863L21.3386 20.392H17.7146L14.1144 7.86399L10.4906 20.392H6.8666Z" stroke="white" stroke-width="3" mask="url(#path-1-outside-1_1_2687)"/>
<path d="M31.2463 20.512C30.8623 20.512 30.4223 20.472 29.9263 20.392C29.4303 20.328 28.9503 20.168 28.4863 19.912C28.0383 19.656 27.6623 19.272 27.3583 18.76C27.0702 18.232 26.9262 17.512 26.9262 16.6L26.926 6.68799C26.926 5.90399 27.046 5.24799 27.286 4.71999C27.526 4.19199 27.846 3.77599 28.246 3.47199C28.646 3.16799 29.086 2.95199 29.566 2.82399C30.046 2.69599 30.518 2.63199 30.982 2.63199C32.182 2.63199 33.238 2.64799 34.15 2.67999C35.078 2.71199 35.91 2.75199 36.646 2.79999C37.382 2.83199 38.054 2.87999 38.662 2.94399L38.662 5.91999H32.038C31.542 5.91999 31.158 6.03999 30.886 6.27999C30.614 6.51999 30.478 6.88799 30.478 7.38399L30.4781 9.95199L37.5101 10.144L37.5101 12.952L30.4781 13.144L30.4782 15.592C30.4782 16.008 30.5422 16.336 30.6702 16.576C30.8142 16.8 30.9982 16.96 31.2222 17.056C31.4622 17.136 31.7102 17.176 31.9662 17.176H38.6622L38.6623 20.152C37.9583 20.232 37.1743 20.296 36.3103 20.344C35.4623 20.392 34.5983 20.432 33.7183 20.464C32.8543 20.496 32.0303 20.512 31.2463 20.512Z" stroke="white" stroke-width="3" mask="url(#path-1-outside-1_1_2687)"/>
<path d="M47.4341 20.392L47.4338 2.63199H54.4178C56.1778 2.63199 57.4578 3.03999 58.2578 3.85599C59.0738 4.65599 59.4818 5.79999 59.4819 7.28799C59.4819 7.99199 59.3779 8.61599 59.1699 9.15999C58.9779 9.68799 58.6979 10.128 58.3299 10.48C57.9619 10.816 57.5219 11.048 57.0099 11.176C57.3939 11.272 57.7619 11.424 58.1139 11.632C58.4819 11.84 58.8099 12.12 59.0979 12.472C59.402 12.824 59.634 13.256 59.794 13.768C59.97 14.264 60.058 14.84 60.058 15.496C60.058 16.696 59.85 17.656 59.4341 18.376C59.0341 19.096 58.4341 19.616 57.6341 19.936C56.8501 20.24 55.8821 20.392 54.7301 20.392H47.4341ZM50.986 17.2H54.634C55.05 17.2 55.41 17.12 55.714 16.96C56.018 16.8 56.25 16.552 56.41 16.216C56.586 15.88 56.674 15.432 56.674 14.872C56.674 14.408 56.586 14.016 56.41 13.696C56.234 13.376 55.994 13.128 55.69 12.952C55.386 12.776 55.034 12.688 54.634 12.688H50.986L50.986 17.2ZM50.9859 9.95199H54.4419C54.9539 9.95199 55.3539 9.76799 55.6419 9.39999C55.9459 9.01599 56.0979 8.51999 56.0979 7.91199C56.1138 7.12799 55.9538 6.58399 55.6178 6.27999C55.2818 5.97599 54.8738 5.82399 54.3938 5.82399H50.9858L50.9859 9.95199Z" stroke="white" stroke-width="3" mask="url(#path-1-outside-1_1_2687)"/>
<path d="M69.177 20.512C68.201 20.512 67.289 20.432 66.441 20.272C65.593 20.096 64.849 19.8 64.209 19.384C63.5849 18.952 63.0969 18.36 62.7449 17.608C62.4089 16.84 62.2409 15.864 62.2409 14.68L62.2406 2.63199H65.7926L65.7929 14.656C65.7929 15.312 65.9209 15.832 66.1769 16.216C66.4489 16.6 66.8329 16.88 67.3289 17.056C67.8409 17.232 68.4569 17.32 69.1769 17.32C69.8809 17.32 70.4809 17.232 70.9769 17.056C71.4889 16.88 71.8729 16.6 72.1289 16.216C72.4009 15.832 72.5369 15.312 72.5369 14.656L72.5366 2.63199L76.1126 2.63199L76.1129 14.68C76.1129 15.864 75.9369 16.84 75.5849 17.608C75.2329 18.36 74.7449 18.952 74.121 19.384C73.497 19.8 72.761 20.096 71.913 20.272C71.081 20.432 70.169 20.512 69.177 20.512Z" stroke="white" stroke-width="3" mask="url(#path-1-outside-1_1_2687)"/>
<path d="M83.1581 20.392L83.158 15.016L77.8058 2.63199H81.5018L85.0059 11.392L88.4858 2.63199L92.0378 2.63199L86.71 15.016L86.7101 20.392H83.1581Z" stroke="white" stroke-width="3" mask="url(#path-1-outside-1_1_2687)"/>
<path d="M103.912 20.392L103.912 5.82399H99.0396L99.0396 2.63199L112.36 2.63199L112.36 5.82399H107.464L107.464 20.392H103.912Z" stroke="white" stroke-width="3" mask="url(#path-1-outside-1_1_2687)"/>
<path d="M114.278 20.392L114.278 2.63199H121.622C122.326 2.63199 122.982 2.71999 123.59 2.89599C124.198 3.05599 124.734 3.34399 125.198 3.75999C125.662 4.17599 126.022 4.75199 126.278 5.48799C126.55 6.22399 126.686 7.16799 126.686 8.31999C126.686 9.13599 126.606 9.83199 126.446 10.408C126.286 10.984 126.07 11.456 125.798 11.824C125.542 12.192 125.246 12.488 124.91 12.712C124.574 12.936 124.23 13.12 123.878 13.264L127.19 20.392H123.566L120.71 13.816C120.518 13.816 120.294 13.816 120.038 13.816C119.798 13.8 119.55 13.792 119.294 13.792C119.038 13.792 118.782 13.792 118.526 13.792C118.27 13.792 118.038 13.784 117.83 13.768L117.83 20.392H114.278ZM117.83 10.96H120.998C121.318 10.96 121.606 10.92 121.862 10.84C122.118 10.76 122.342 10.624 122.534 10.432C122.726 10.224 122.87 9.95199 122.966 9.61599C123.078 9.27999 123.134 8.84799 123.134 8.31999C123.134 7.82399 123.078 7.41599 122.966 7.09599C122.87 6.75999 122.726 6.50399 122.534 6.32799C122.342 6.13599 122.118 6.00799 121.862 5.94399C121.606 5.86399 121.318 5.82399 120.998 5.82399H117.83L117.83 10.96Z" stroke="white" stroke-width="3" mask="url(#path-1-outside-1_1_2687)"/>
<path d="M128.197 20.392L133.764 2.63199H138.252L143.821 20.392H140.125L138.997 16.672H132.949L131.845 20.392H128.197ZM133.789 13.48H138.157L135.972 5.67999L133.789 13.48Z" stroke="white" stroke-width="3" mask="url(#path-1-outside-1_1_2687)"/>
<path d="M145.286 20.392L145.285 6.68799C145.285 5.90399 145.405 5.24799 145.645 4.71999C145.885 4.19199 146.205 3.77599 146.605 3.47199C147.005 3.16799 147.445 2.95199 147.925 2.82399C148.405 2.69599 148.877 2.63199 149.341 2.63199C149.917 2.63199 150.629 2.63999 151.477 2.65599C152.341 2.65599 153.253 2.67999 154.213 2.72799C155.189 2.77599 156.125 2.84799 157.021 2.94399L157.021 5.91999L150.325 5.91999C149.829 5.91999 149.453 6.05599 149.197 6.32799C148.957 6.58399 148.837 6.92799 148.837 7.35999L148.837 10.384L155.869 10.576L155.87 13.384L148.838 13.576L148.838 20.392H145.286Z" stroke="white" stroke-width="3" mask="url(#path-1-outside-1_1_2687)"/>
<path d="M159.043 20.392L159.043 6.68799C159.043 5.90399 159.163 5.24799 159.403 4.71999C159.643 4.19199 159.963 3.77599 160.363 3.47199C160.763 3.16799 161.203 2.95199 161.683 2.82399C162.163 2.69599 162.635 2.63199 163.099 2.63199C163.675 2.63199 164.387 2.63999 165.235 2.65599C166.099 2.65599 167.011 2.67999 167.971 2.72799C168.947 2.77599 169.883 2.84799 170.779 2.94399L170.779 5.91999L164.083 5.91999C163.587 5.91999 163.211 6.05599 162.955 6.32799C162.715 6.58399 162.595 6.92799 162.595 7.35999L162.595 10.384L169.627 10.576L169.627 13.384L162.595 13.576L162.595 20.392H159.043Z" stroke="white" stroke-width="3" mask="url(#path-1-outside-1_1_2687)"/>
<path d="M173.036 20.392L173.035 2.63199H176.587L176.588 20.392H173.036Z" stroke="white" stroke-width="3" mask="url(#path-1-outside-1_1_2687)"/>
<path d="M185.644 20.536C184.604 20.536 183.684 20.416 182.884 20.176C182.1 19.936 181.428 19.496 180.868 18.856C180.324 18.216 179.908 17.304 179.62 16.12C179.348 14.92 179.212 13.368 179.212 11.464C179.212 9.62399 179.356 8.11999 179.644 6.95199C179.948 5.76799 180.38 4.85599 180.94 4.21599C181.5 3.55999 182.18 3.10399 182.98 2.84799C183.78 2.59199 184.684 2.46399 185.692 2.46399C186.492 2.46399 187.236 2.51199 187.924 2.60799C188.628 2.68799 189.26 2.79199 189.82 2.91999C190.38 3.03199 190.852 3.15999 191.236 3.30399L191.236 6.06399C190.948 5.99999 190.556 5.93599 190.06 5.87199C189.58 5.80799 189.028 5.75999 188.404 5.72799C187.78 5.67999 187.124 5.65599 186.436 5.65599C185.764 5.65599 185.188 5.73599 184.708 5.89599C184.244 6.03999 183.868 6.31999 183.58 6.73599C183.308 7.13599 183.1 7.71999 182.956 8.48799C182.828 9.25599 182.764 10.256 182.764 11.488C182.764 12.672 182.82 13.648 182.932 14.416C183.06 15.184 183.26 15.784 183.532 16.216C183.804 16.632 184.172 16.928 184.636 17.104C185.116 17.264 185.716 17.344 186.436 17.344C187.652 17.344 188.636 17.32 189.388 17.272C190.156 17.224 190.772 17.168 191.236 17.104L191.236 19.84C190.804 19.984 190.308 20.112 189.748 20.224C189.188 20.32 188.572 20.392 187.9 20.44C187.228 20.504 186.476 20.536 185.644 20.536Z" stroke="white" stroke-width="3" mask="url(#path-1-outside-1_1_2687)"/>
</svg>
